<svg xmlns="http://www.w3.org/2000/svg" xmlns:xlink="http://www.w3.org/1999/xlink" width="1080" zoomAndPan="magnify" viewBox="0 0 810 809.999993" height="1080" preserveAspectRatio="xMidYMid meet" version="1.2"><g id="94c9cfab41"><path style=" stroke:none;fill-rule:nonzero;fill:#d1235c;fill-opacity:1;" d="M 794.527344 539.730469 C 782.039062 518.101562 758.347656 507.316406 735.125 510.660156 C 719.523438 496.609375 699.59375 488.917969 678.398438 488.917969 C 673.320312 488.917969 668.292969 489.367188 663.347656 490.25 C 654.441406 465.175781 630.601562 447.878906 603.195312 447.878906 C 578.972656 447.878906 556.929688 461.847656 546.207031 482.941406 C 540.460938 480.894531 534.367188 479.84375 528.175781 479.84375 C 520.832031 479.84375 513.722656 481.292969 507.148438 484.105469 C 496.542969 462.695312 474.5 448.578125 449.90625 448.578125 C 420.789062 448.578125 396 467.941406 388.421875 495.09375 C 384.777344 494.613281 381.082031 494.378906 377.382812 494.378906 C 357.773438 494.378906 338.976562 501.105469 323.859375 513.390625 C 312.652344 511.328125 300.949219 510.210938 288.960938 510.210938 C 255.78125 510.210938 223.898438 518.601562 198.773438 533.921875 L 150.472656 533.921875 C 147.84375 515.457031 131.925781 501.203125 112.746094 501.203125 L 38.160156 501.203125 C 17.148438 501.203125 0.0351562 518.304688 0.0351562 539.332031 L 0.0351562 727.597656 C 0.0351562 748.609375 17.132812 765.726562 38.160156 765.726562 L 112.746094 765.726562 C 131.925781 765.726562 147.84375 751.472656 150.472656 733.007812 L 202.269531 733.007812 L 432.308594 800.839844 C 445.429688 804.699219 458.449219 806.632812 471.234375 806.632812 C 497.957031 806.632812 523.648438 798.222656 546.9375 781.660156 L 777.613281 617.546875 C 802.617188 599.734375 809.894531 566.285156 794.527344 539.730469 Z M 377.351562 514.355469 C 382.914062 514.355469 388.441406 515.054688 393.785156 516.453125 C 396.597656 517.1875 399.59375 516.65625 401.992188 514.988281 C 404.390625 513.324219 405.9375 510.710938 406.238281 507.8125 C 408.570312 485.4375 427.332031 468.554688 449.875 468.554688 C 469.738281 468.554688 487.183594 481.941406 492.28125 501.121094 C 493.128906 504.335938 495.527344 506.898438 498.65625 507.980469 C 501.785156 509.078125 505.265625 508.53125 507.914062 506.550781 C 513.789062 502.152344 520.800781 499.839844 528.160156 499.839844 C 534.550781 499.839844 540.777344 501.636719 546.15625 505.015625 C 548.804688 506.683594 552.082031 507.015625 555.011719 505.898438 C 557.945312 504.785156 560.175781 502.371094 561.058594 499.375 C 566.5 480.824219 583.816406 467.871094 603.164062 467.871094 C 624.472656 467.871094 642.636719 483.074219 646.367188 504 C 646.867188 506.816406 648.566406 509.296875 651.011719 510.777344 C 653.460938 512.277344 656.421875 512.640625 659.171875 511.792969 C 665.363281 509.878906 671.839844 508.894531 678.398438 508.894531 C 690.71875 508.894531 702.472656 512.292969 712.648438 518.636719 L 574.742188 593.40625 C 564.1875 580.738281 548.304688 572.664062 530.554688 572.664062 L 418.125 572.664062 C 405.023438 549.355469 380.496094 530.957031 350.148438 520.335938 C 358.589844 516.4375 367.84375 514.355469 377.351562 514.355469 Z M 130.878906 727.582031 C 130.878906 737.589844 122.738281 745.730469 112.730469 745.730469 L 38.144531 745.730469 C 28.136719 745.730469 19.996094 737.589844 19.996094 727.582031 L 19.996094 539.3125 C 19.996094 529.308594 28.136719 521.167969 38.144531 521.167969 L 112.730469 521.167969 C 122.738281 521.167969 130.878906 529.308594 130.878906 539.3125 Z M 766.023438 601.25 L 535.351562 765.359375 C 506.082031 786.1875 472.402344 791.8125 437.953125 781.660156 L 206.53125 713.429688 C 205.617188 713.164062 204.667969 713.015625 203.703125 713.015625 L 150.839844 713.015625 L 150.839844 553.882812 L 201.605469 553.882812 C 203.519531 553.882812 205.382812 553.332031 206.980469 552.300781 C 229.292969 538.03125 258.394531 530.175781 288.929688 530.175781 C 340.539062 530.175781 387.425781 553.484375 402.957031 586.863281 C 404.589844 590.394531 408.136719 592.640625 412.015625 592.640625 L 530.539062 592.640625 C 551.25 592.640625 568.082031 609.488281 568.082031 630.183594 C 568.082031 650.878906 551.234375 667.726562 530.539062 667.726562 L 370.191406 667.726562 C 364.679688 667.726562 360.203125 672.207031 360.203125 677.71875 C 360.203125 683.230469 364.679688 687.707031 370.191406 687.707031 L 530.539062 687.707031 C 562.257812 687.707031 588.0625 661.902344 588.0625 630.183594 C 588.0625 623.359375 586.863281 616.800781 584.664062 610.722656 L 724.601562 534.851562 C 743.097656 524.828125 766.691406 531.488281 777.210938 549.71875 C 787.417969 567.316406 782.589844 589.460938 766.023438 601.25 Z M 527.875 211.542969 C 556.527344 211.542969 579.835938 188.234375 579.835938 159.582031 C 579.835938 130.929688 556.527344 107.621094 527.875 107.621094 C 499.222656 107.621094 475.914062 130.929688 475.914062 159.582031 C 475.914062 188.234375 499.238281 211.542969 527.875 211.542969 Z M 527.875 127.617188 C 545.507812 127.617188 559.859375 141.96875 559.859375 159.597656 C 559.859375 177.230469 545.507812 191.582031 527.875 191.582031 C 510.246094 191.582031 495.894531 177.230469 495.894531 159.597656 C 495.894531 141.96875 510.246094 127.617188 527.875 127.617188 Z M 409.617188 380.449219 C 410.582031 383.863281 413.28125 386.507812 416.710938 387.40625 C 417.542969 387.625 418.390625 387.722656 419.242188 387.722656 C 421.855469 387.722656 424.402344 386.691406 426.300781 384.792969 L 462.960938 348.132812 C 464.808594 351.230469 466.722656 354.226562 468.722656 357.058594 C 470.585938 359.703125 473.632812 361.269531 476.863281 361.269531 L 578.886719 361.269531 C 582.117188 361.269531 585.164062 359.703125 587.03125 357.058594 C 589.042969 354.226562 590.960938 351.230469 592.808594 348.132812 L 629.46875 384.792969 C 631.367188 386.691406 633.914062 387.722656 636.527344 387.722656 C 637.359375 387.722656 638.210938 387.625 639.058594 387.40625 C 642.488281 386.507812 645.183594 383.863281 646.152344 380.449219 L 664.914062 313.820312 C 669.941406 295.972656 665.363281 278.15625 652.34375 264.953125 L 625.839844 238.050781 C 629.117188 212.757812 629.933594 190.332031 629.269531 176.699219 C 624.972656 89.457031 593.789062 58.355469 534.453125 6.542969 C 530.6875 3.265625 525.078125 3.265625 521.316406 6.542969 C 461.960938 58.355469 430.792969 89.457031 426.5 176.699219 C 425.832031 190.332031 426.648438 212.757812 429.929688 238.050781 L 403.421875 264.953125 C 390.421875 278.15625 385.824219 295.972656 390.855469 313.820312 Z M 573.578125 341.308594 L 482.175781 341.308594 C 474.683594 329.617188 468.554688 315.316406 463.609375 299.933594 L 592.125 299.933594 C 587.195312 315.300781 581.070312 329.601562 573.578125 341.308594 Z M 638.109375 278.972656 C 646.066406 287.046875 648.75 297.488281 645.667969 308.390625 L 631.515625 358.605469 L 602.332031 329.417969 C 611.355469 308.875 617.679688 285.347656 621.941406 262.574219 Z M 446.445312 177.679688 C 450.191406 101.511719 475.648438 73.304688 527.875 27.355469 C 580.121094 73.304688 605.558594 101.511719 609.304688 177.679688 C 610.421875 200.207031 607.34375 241.363281 597.785156 279.953125 L 457.949219 279.953125 C 448.410156 241.363281 445.328125 200.207031 446.445312 177.679688 Z M 417.640625 278.972656 L 433.792969 262.574219 C 438.054688 285.367188 444.378906 308.890625 453.40625 329.4375 L 424.21875 358.621094 L 410.066406 308.40625 C 407.003906 297.488281 409.683594 287.046875 417.640625 278.972656 Z M 483.722656 375.335938 C 489.234375 375.335938 493.710938 379.816406 493.710938 385.328125 L 493.710938 413.3125 C 493.710938 418.824219 489.234375 423.304688 483.722656 423.304688 C 478.210938 423.304688 473.734375 418.824219 473.734375 413.3125 L 473.734375 385.328125 C 473.734375 379.800781 478.195312 375.335938 483.722656 375.335938 Z M 527.875 376.851562 C 533.386719 376.851562 537.863281 381.332031 537.863281 386.84375 L 537.863281 444.632812 C 537.863281 450.140625 533.386719 454.621094 527.875 454.621094 C 522.363281 454.621094 517.886719 450.140625 517.886719 444.632812 L 517.886719 386.84375 C 517.886719 381.316406 522.363281 376.851562 527.875 376.851562 Z M 572.046875 375.335938 C 577.554688 375.335938 582.035156 379.816406 582.035156 385.328125 L 582.035156 413.3125 C 582.035156 418.824219 577.554688 423.304688 572.046875 423.304688 C 566.535156 423.304688 562.054688 418.824219 562.054688 413.3125 L 562.054688 385.328125 C 562.054688 379.800781 566.519531 375.335938 572.046875 375.335938 Z M 572.046875 375.335938 "/></g></svg>